<?xml version="1.0" encoding="UTF-8" standalone="no"?>
<svg
   viewBox="0 0 50 50"
   width="50px"
   height="50px"
   version="1.1"
   id="svg1"
   sodipodi:docname="status_nok.svg"
   inkscape:version="1.4.2 (f4327f4, 2025-05-13)"
   xmlns:inkscape="http://www.inkscape.org/namespaces/inkscape"
   xmlns:sodipodi="http://sodipodi.sourceforge.net/DTD/sodipodi-0.dtd"
   xmlns="http://www.w3.org/2000/svg"
   xmlns:svg="http://www.w3.org/2000/svg">
  <defs
     id="defs1" />
  <sodipodi:namedview
     id="namedview1"
     pagecolor="#505050"
     bordercolor="#eeeeee"
     borderopacity="1"
     inkscape:showpageshadow="0"
     inkscape:pageopacity="0"
     inkscape:pagecheckerboard="0"
     inkscape:deskcolor="#505050"
     inkscape:zoom="7.73"
     inkscape:cx="-19.210867"
     inkscape:cy="11.578266"
     inkscape:window-width="2560"
     inkscape:window-height="1351"
     inkscape:window-x="1911"
     inkscape:window-y="-9"
     inkscape:window-maximized="1"
     inkscape:current-layer="svg1" />
  <path
     d="M 25,2 C 12.318,2 2,12.318 2,25 2,37.683 12.318,48 25,48 37.683,48 48,37.683 48,25 48,12.318 37.683,2 25,2 Z M 35.827,16.562 24.316,33.525 15.319,25.176 c -0.405,-0.375 -0.429,-1.008 -0.053,-1.413 0.375,-0.406 1.009,-0.428 1.413,-0.053 l 7.29,6.764 10.203,-15.036 c 0.311,-0.457 0.933,-0.575 1.389,-0.266 0.458,0.31 0.577,0.932 0.266,1.39 z"
     id="path1"
     style="display:inline;fill:#000000;fill-opacity:1" />
  <path
     style="display:inline;fill:#000000;fill-opacity:1;stroke:#000000;stroke-width:2.44471;stroke-linejoin:round;stroke-miterlimit:0.5;paint-order:markers fill stroke"
     d="m 19.760673,29.257356 c -2.47251,-2.296743 -4.54641,-4.266539 -4.608668,-4.377325 -0.219817,-0.39116 -0.08759,-0.947919 0.288786,-1.215919 0.261289,-0.186054 0.685409,-0.227255 0.946976,-0.09199 0.113355,0.05862 1.851021,1.633659 3.86148,3.50009 2.010459,1.86643 3.681551,3.39351 3.713538,3.39351 0.03199,0 2.374405,-3.413975 5.205373,-7.586612 3.761393,-5.544014 5.20257,-7.619311 5.352817,-7.708064 0.392753,-0.232004 1.018632,-0.104421 1.254627,0.255752 0.124967,0.190725 0.198249,0.517932 0.169249,0.755715 -0.01969,0.161412 -11.533041,17.210761 -11.641099,17.238516 -0.02618,0.0067 -2.07057,-1.866925 -4.543079,-4.163669 z"
     id="path2" />
  <path
     style="fill:#808080;fill-opacity:1;stroke:#000000;stroke-width:3.77953;stroke-linecap:square;stroke-linejoin:miter;stroke-miterlimit:0;stroke-dasharray:none;paint-order:stroke markers fill"
     d="M 13.667944,13.667944 37.053831,34.461997"
     id="path5" />
  <path
     style="fill:#808080;fill-opacity:1;stroke:#000000;stroke-width:3.77953;stroke-linecap:square;stroke-linejoin:miter;stroke-miterlimit:0;stroke-dasharray:none;paint-order:stroke markers fill"
     d="M 36.553264,13.747205 13.798269,34.62188"
     id="path6"
     sodipodi:nodetypes="cc" />
  <path
     style="fill:#1a1a1a;fill-opacity:1;stroke:#000000;stroke-width:0.244471;stroke-linecap:square;stroke-linejoin:miter;stroke-miterlimit:0;stroke-dasharray:none;paint-order:stroke markers fill"
     d="m 12.437041,35.920683 c -0.660175,-0.721352 -1.197755,-1.340658 -1.194621,-1.376233 0.0031,-0.03558 2.538309,-2.388159 5.633723,-5.227962 3.095414,-2.839803 5.628025,-5.188624 5.628025,-5.219601 0,-0.03098 -2.561448,-2.332464 -5.692108,-5.114415 -3.13066,-2.78195 -5.701346,-5.081637 -5.712637,-5.110417 -0.01129,-0.02878 0.524827,-0.665045 1.191372,-1.413924 1.062325,-1.193548 1.224524,-1.35089 1.314189,-1.274833 0.242034,0.205303 11.311766,10.039575 11.495377,10.212412 l 0.202919,0.191013 5.521531,-5.060728 c 3.036842,-2.7834 5.594299,-5.127322 5.683238,-5.208714 l 0.161708,-0.147987 1.252567,1.368857 1.252568,1.368856 -0.191703,0.163482 c -0.105437,0.08992 -2.598941,2.373118 -5.541121,5.073783 -4.313339,3.959272 -5.333118,4.92572 -5.265262,4.989915 0.04629,0.04379 2.640743,2.350352 5.765464,5.125699 3.124721,2.775347 5.680716,5.06498 5.67999,5.088074 -7.27e-4,0.02309 -0.544028,0.652192 -1.207337,1.397996 l -1.206015,1.356008 -0.177251,-0.149147 c -0.09749,-0.08203 -2.746681,-2.433021 -5.887094,-5.224423 -3.140414,-2.791402 -5.749291,-5.075277 -5.797506,-5.075277 -0.04821,0 -2.666607,2.366482 -5.818649,5.258848 -3.152043,2.892366 -5.767001,5.272667 -5.811018,5.289558 -0.04439,0.01703 -0.614636,-0.553436 -1.280349,-1.28084 z"
     id="path8" />
  <path
     style="fill:#ff0000;fill-opacity:1;stroke:#000000;stroke-width:0.488943;stroke-linecap:square;stroke-linejoin:miter;stroke-miterlimit:0;stroke-dasharray:none;paint-order:stroke markers fill"
     d="M 23.341809,47.859027 C 17.87514,47.465379 12.866794,45.170365 8.8819894,41.232991 -1.4283521,31.045373 0.23118021,14.026255 12.323369,5.9403733 c 4.04089,-2.7020879 8.693146,-4.0232954 13.485169,-3.829692 3.327695,0.1344429 6.078029,0.8039508 8.926261,2.1729007 2.619888,1.2592001 4.308907,2.4620774 6.413389,4.5674547 2.016699,2.0175583 3.176817,3.6096073 4.383046,6.0149243 4.150512,8.276453 2.807199,18.294567 -3.395136,25.320141 -3.75309,4.251241 -9.548899,7.221375 -14.850786,7.610471 -2.049121,0.150382 -2.601051,0.159123 -3.943503,0.06245 z m -3.87873,-15.776233 c 3.07656,-2.810478 5.670339,-5.153593 5.763952,-5.206921 0.17723,-0.100962 0.961455,0.566556 8.151071,6.938033 2.056849,1.822791 3.782031,3.314166 3.833736,3.314166 0.09989,0 2.345576,-2.530226 2.415307,-2.721335 0.04986,-0.136644 0.368854,0.156103 -6.090637,-5.589461 l -5.273323,-4.690497 1.273037,-1.228978 c 0.70017,-0.675938 3.172549,-2.970318 5.494176,-5.098622 l 4.221139,-3.869644 -0.510049,-0.593487 C 38.46096,13.00963 37.885984,12.364166 37.463766,11.901682 l -0.767672,-0.84088 -0.366157,0.334727 c -0.201389,0.1841 -2.490998,2.274302 -5.088022,4.644893 -2.597025,2.370591 -4.990329,4.56754 -5.318454,4.882108 l -0.596592,0.571943 -5.843782,-5.196642 c -3.493078,-3.106255 -5.914463,-5.16952 -6.019492,-5.129217 -0.211806,0.08128 -2.402793,2.522933 -2.402793,2.677694 0,0.08829 9.792307,8.926238 10.982226,9.911899 l 0.335922,0.278257 -0.258039,0.286729 c -0.141921,0.1577 -2.659397,2.501543 -5.594391,5.208539 -2.934993,2.706996 -5.336352,4.964158 -5.336352,5.015915 0,0.196282 2.371695,2.720085 2.521759,2.683491 0.08657,-0.02111 2.674592,-2.337865 5.751152,-5.148344 z"
     id="path9" />
</svg>
