<?xml version="1.0" encoding="UTF-8" standalone="no"?>
<!-- Created with Inkscape (http://www.inkscape.org/) -->

<svg
   width="181.57588mm"
   height="178.33022mm"
   viewBox="0 0 181.57588 178.33022"
   version="1.1"
   id="svg1"
   xml:space="preserve"
   inkscape:version="1.4 (86a8ad7, 2024-10-11)"
   sodipodi:docname="SVG vat.svg"
   inkscape:export-filename="SVG vat.svg"
   inkscape:export-xdpi="96"
   inkscape:export-ydpi="96"
   xmlns:inkscape="http://www.inkscape.org/namespaces/inkscape"
   xmlns:sodipodi="http://sodipodi.sourceforge.net/DTD/sodipodi-0.dtd"
   xmlns="http://www.w3.org/2000/svg"
   xmlns:svg="http://www.w3.org/2000/svg"><sodipodi:namedview
     id="namedview1"
     pagecolor="#ffffff"
     bordercolor="#000000"
     borderopacity="0.25"
     inkscape:showpageshadow="2"
     inkscape:pageopacity="0.0"
     inkscape:pagecheckerboard="0"
     inkscape:deskcolor="#d1d1d1"
     inkscape:document-units="mm"
     inkscape:lockguides="false"
     showgrid="true"
     inkscape:zoom="11.419338"
     inkscape:cx="55.082"
     inkscape:cy="120.01571"
     inkscape:window-width="1920"
     inkscape:window-height="991"
     inkscape:window-x="-9"
     inkscape:window-y="-9"
     inkscape:window-maximized="1"
     inkscape:current-layer="svg1"><inkscape:grid
       id="grid1"
       units="mm"
       originx="1.7112465e-07"
       originy="-21.669785"
       spacingx="0.50000001"
       spacingy="0.49999999"
       empcolor="#0099e5"
       empopacity="0.30196078"
       color="#0099e5"
       opacity="0.14901961"
       empspacing="5"
       enabled="true"
       visible="true"
       dotted="false" /><inkscape:page
       x="0"
       y="0"
       width="181.57588"
       height="178.33022"
       id="page2"
       margin="0"
       bleed="0" /></sodipodi:namedview><defs
     id="defs1" /><rect
     style="fill:#ffffff;fill-opacity:1;stroke:#000000;stroke-width:1.002;stroke-linecap:butt;stroke-linejoin:round;stroke-dasharray:none;stroke-opacity:1"
     id="rect13"
     width="70"
     height="102.49999"
     x="70"
     y="40.830215"
     ry="1.4210855e-14" /><rect
     style="fill:#ffffff;fill-opacity:1;stroke:#fffefe;stroke-width:1.002;stroke-linecap:butt;stroke-linejoin:round;stroke-dasharray:none;stroke-opacity:1"
     id="rect16"
     width="68"
     height="5.5000019"
     x="71"
     y="38.330215"
     ry="0" /><g
     inkscape:label="Laag 1"
     inkscape:groupmode="layer"
     id="layer1"
     transform="translate(1.7112466e-7,-21.669784)"><rect
       style="fill:#000000;stroke-width:0.264583"
       id="rect7"
       width="110"
       height="0.99999946"
       x="-1.7112467e-07"
       y="27.5"
       ry="0" /><rect
       style="fill:#000000;stroke-width:0.264583"
       id="rect8"
       width="102.5"
       height="0.99999928"
       x="-1.7112467e-07"
       y="35" /><rect
       style="fill:#000000;stroke-width:0.264583"
       id="rect9"
       width="1"
       height="19.499998"
       x="109"
       y="28" /><rect
       style="fill:#000000;stroke-width:0.264583"
       id="rect10"
       width="1"
       height="12.5"
       x="101.50001"
       y="35" /><rect
       style="fill:#000000;stroke-width:0.183983"
       id="rect9-5"
       width="1"
       height="9.4289675"
       x="109"
       y="68.07103" /><rect
       style="fill:#000000;stroke-width:0.232055"
       id="rect10-5"
       width="1"
       height="9.6153831"
       x="101.50001"
       y="67.884613" /><path
       sodipodi:type="star"
       style="fill:#ffffff;fill-opacity:1;stroke:#000000;stroke-width:1.49706;stroke-dasharray:none;stroke-opacity:1"
       id="path13"
       inkscape:flatsided="true"
       sodipodi:sides="3"
       sodipodi:cx="106.25"
       sodipodi:cy="37.5"
       sodipodi:r1="10.077821"
       sodipodi:r2="5.0389104"
       sodipodi:arg1="-2.6224463"
       sodipodi:arg2="-1.5752488"
       inkscape:rounded="0"
       inkscape:randomized="0"
       d="m 97.500002,32.499999 17.455128,-0.07772 -8.66026,15.15544 z"
       inkscape:transform-center-x="0.016031111"
       inkscape:transform-center-y="1.5674319"
       transform="matrix(0.71450588,0,0,0.62697259,29.693685,27.396731)" /><path
       sodipodi:type="star"
       style="fill:#ffffff;fill-opacity:1;stroke:#000000;stroke-width:1.49742;stroke-dasharray:none;stroke-opacity:1"
       id="path13-8"
       inkscape:flatsided="true"
       sodipodi:sides="3"
       sodipodi:cx="106.25"
       sodipodi:cy="37.5"
       sodipodi:r1="10.077821"
       sodipodi:r2="5.0389104"
       sodipodi:arg1="-2.6224463"
       sodipodi:arg2="-1.5752488"
       inkscape:rounded="0"
       inkscape:randomized="0"
       d="m 97.500002,32.499999 17.455128,-0.07772 -8.66026,15.15544 z"
       inkscape:transform-center-x="0.016045384"
       inkscape:transform-center-y="-1.5677333"
       transform="matrix(0.71545375,0,0,-0.62709353,29.544842,87.929704)" /><rect
       style="fill:#000000;stroke-width:0.126045"
       id="rect9-2"
       width="1"
       height="4.4254737"
       x="108.99959"
       y="165.50099" /><rect
       style="fill:#000000;stroke-width:0.15743"
       id="rect10-2"
       width="1"
       height="4.4254756"
       x="101.4996"
       y="165.50099" /><rect
       style="fill:#000000;stroke-width:0.183983"
       id="rect9-5-1"
       width="1"
       height="9.4289675"
       x="108.99959"
       y="190.4975" /><rect
       style="fill:#000000;stroke-width:0.232055"
       id="rect10-5-6"
       width="1"
       height="9.6153831"
       x="101.4996"
       y="190.31108" /><path
       sodipodi:type="star"
       style="fill:#ffffff;fill-opacity:1;stroke:#000000;stroke-width:1.49706;stroke-dasharray:none;stroke-opacity:1"
       id="path13-85"
       inkscape:flatsided="true"
       sodipodi:sides="3"
       sodipodi:cx="106.25"
       sodipodi:cy="37.5"
       sodipodi:r1="10.077821"
       sodipodi:r2="5.0389104"
       sodipodi:arg1="-2.6224463"
       sodipodi:arg2="-1.5752488"
       inkscape:rounded="0"
       inkscape:randomized="0"
       d="m 97.500002,32.499999 17.455128,-0.07772 -8.66026,15.15544 z"
       inkscape:transform-center-x="0.016031111"
       inkscape:transform-center-y="1.5674319"
       transform="matrix(0.71450588,0,0,0.62697259,29.69328,149.8232)" /><path
       sodipodi:type="star"
       style="fill:#ffffff;fill-opacity:1;stroke:#000000;stroke-width:1.49742;stroke-dasharray:none;stroke-opacity:1"
       id="path13-8-7"
       inkscape:flatsided="true"
       sodipodi:sides="3"
       sodipodi:cx="106.25"
       sodipodi:cy="37.5"
       sodipodi:r1="10.077821"
       sodipodi:r2="5.0389104"
       sodipodi:arg1="-2.6224463"
       sodipodi:arg2="-1.5752488"
       inkscape:rounded="0"
       inkscape:randomized="0"
       d="m 97.500002,32.499999 17.455128,-0.07772 -8.66026,15.15544 z"
       inkscape:transform-center-x="0.016045384"
       inkscape:transform-center-y="-1.5677333"
       transform="matrix(0.71545375,0,0,-0.62709353,29.544437,210.35617)" /><rect
       style="fill:#0028da;fill-opacity:1;stroke:#fffefe;stroke-width:0;stroke-linecap:butt;stroke-linejoin:round;stroke-dasharray:none;stroke-opacity:1"
       id="fluid"
       width="69"
       height="6.4999952"
       x="70.5"
       y="158"
       inkscape:label="fluid" /><rect
       style="fill:#0028da;fill-opacity:1;stroke:#fffefe;stroke-width:0;stroke-linecap:butt;stroke-linejoin:round;stroke-dasharray:none;stroke-opacity:1"
       id="WaterBuisBoven"
       width="109"
       height="6.500001"
       x="0"
       y="28.499998" /><rect
       style="fill:#0028da;fill-opacity:1;stroke:#fffefe;stroke-width:0;stroke-linecap:butt;stroke-linejoin:round;stroke-dasharray:none;stroke-opacity:1"
       id="WaterBuisBoven2"
       width="6.5"
       height="12.5"
       x="102.5"
       y="35" /><rect
       style="fill:#0028da;fill-opacity:1;stroke:#fffefe;stroke-width:0;stroke-linecap:butt;stroke-linejoin:round;stroke-dasharray:none;stroke-opacity:1"
       id="rect20"
       width="6.4995856"
       height="9.5024967"
       x="102.5"
       y="190.4975" /><rect
       style="fill:#0028da;fill-opacity:1;stroke:#fffefe;stroke-width:0;stroke-linecap:butt;stroke-linejoin:round;stroke-dasharray:none;stroke-opacity:1"
       id="rect21"
       width="6.4999847"
       height="4.4254761"
       x="102.4996"
       y="165.50099" /><rect
       style="fill:#0028da;fill-opacity:1;stroke:#fffefe;stroke-width:0;stroke-linecap:butt;stroke-linejoin:round;stroke-dasharray:none;stroke-opacity:1"
       id="Waterval"
       width="6.4999924"
       height="96.615379"
       x="102.50001"
       y="67.884613" /><g
       inkscape:label="Ebene 1"
       id="layer1-3"
       transform="matrix(-0.00343615,0.25694159,-0.29240935,-0.00301936,152.82161,78.448644)"
       style="fill:#d90000;fill-opacity:1"><path
         style="fill:#d90000;fill-opacity:1;stroke-width:0.264583"
         d="m 10.089827,245.31687 c 0.202489,-10.06323 -0.02245,-17.82623 4.643293,-25.24363 7.42604,-11.48202 21.509287,-14.38997 33.731992,-6.96507 l 1.513104,0.91917 c 23.200902,-7.67144 31.47236,-2.846 41.972234,0.95373 17.22683,-9.99298 40.91982,-7.00525 47.51113,4.68028 -4.10595,4.38162 -7.42975,-0.89661 -10.58755,0.0574 -8.74584,-4.24706 -20.69359,-3.84941 -29.15725,0.77435 7.69925,6.06605 10.39395,24.38094 6.31471,38.30628 -4.99633,17.05602 -20.661526,18.28418 -26.900129,2.09035 -4.710533,-15.49048 -3.630102,-32.20194 6.267933,-41.35296 -8.350615,-4.70739 -19.809303,-4.49733 -29.754533,0.10588 l 0.86954,1.36099 c 13.03773,20.40642 5.259318,53.63807 -11.988832,51.21977 l -3e-6,-4e-5 C 34.324868,270.79318 27.638077,255.00661 30.567812,239.654 c 1.295778,-6.79023 3.845011,-12.65929 8.893248,-17.96413 1.26284,-1.32703 4.655122,-3.72255 4.59844,-3.77174 -4.2208,-3.02362 -7.494763,-3.40807 -11.025996,-2.74661 -4.707474,0.88179 -10.111146,3.02697 -12.791203,8.87688 -2.303214,3.64059 -3.427477,12.62272 -3.332691,21.26847 m 31.711862,19.08418 c 8.179576,-3.88146 8.317436,-26.44677 2.007161,-38.52686 -1.686124,-3.22784 -1.158848,-3.64186 -4.072631,-0.73964 -4.018388,4.00244 -6.841476,9.91332 -8.286932,14.95712 -3.338764,11.65036 3.600519,27.51335 10.352402,24.30938 z m 45.772918,0 c 8.48291,-6.2595 9.31048,-36.99026 -2.24721,-41.46719 -3.633605,2.65594 -6.013202,7.39565 -7.020113,11.16416 -4.176049,15.62944 1.446429,34.01428 9.267323,30.30303 z"
         id="path5333-2"
         inkscape:connector-curvature="0"
         sodipodi:nodetypes="ccccccccscccssssscsccsssssccsc" /><path
         style="fill:#d90000;fill-opacity:1;stroke-width:0.264583"
         d="m 137.09427,216.17665 c 17.22683,-9.99298 40.9198,-7.00525 47.51112,4.68028 -4.10595,4.38162 -7.42975,-0.89661 -10.58755,0.0574 -8.74584,-4.24706 -20.69358,-3.84941 -29.15725,0.77435 7.69925,6.06605 10.39396,24.38094 6.31472,38.30628 -4.99633,17.05602 -20.66153,18.28418 -26.90013,2.09035 -4.71053,-15.49048 -3.6301,-32.20194 6.26793,-41.35296 -1.66908,-1.0136 -10.33548,-5.39797 6.55116,-4.5557 z m 2.44393,49.41998 c 8.48291,-6.2595 9.31049,-36.99026 -2.2472,-41.46719 -3.63361,2.65594 -6.01321,7.39565 -7.02012,11.16416 -4.17605,15.62944 1.44643,34.01428 9.26732,30.30303 z"
         id="path5333-2-7"
         inkscape:connector-curvature="0"
         sodipodi:nodetypes="ccccscccccsc" /><path
         style="fill:#d90000;fill-opacity:1;stroke-width:0.264583"
         d="m 180.56899,216.35863 c 17.22684,-9.99298 40.91981,-7.00525 47.51113,4.68028 -4.10595,4.38162 -7.42975,-0.89661 -10.58755,0.0574 -8.74584,-4.24706 -20.69358,-3.84941 -29.15725,0.77435 7.69925,6.06605 10.39396,24.38094 6.31472,38.30628 -4.99633,17.05602 -20.66153,18.28418 -26.90013,2.09035 -4.71054,-15.49048 -3.6301,-32.20194 6.26793,-41.35296 -1.66908,-1.0136 -10.33548,-5.39797 6.55115,-4.5557 z m 2.44394,49.41998 c 8.48291,-6.2595 9.31049,-36.99026 -2.2472,-41.46719 -3.63361,2.65594 -6.01321,7.39565 -7.02012,11.16416 -4.17605,15.62944 1.44643,34.01428 9.26732,30.30303 z"
         id="path5333-2-7-1"
         inkscape:connector-curvature="0"
         sodipodi:nodetypes="ccccscccccsc" /><rect
         style="opacity:1;fill:#d90000;fill-opacity:1;stroke:none;stroke-width:0.264048;stroke-miterlimit:4;stroke-dasharray:0.528096, 0.264048;stroke-dashoffset:0;stroke-opacity:1"
         id="rect5459"
         width="6.8197842"
         height="48.313324"
         x="10.089827"
         y="245.19994" /><path
         style="fill:#d90000;fill-opacity:1;stroke:none;stroke-width:0.264583;stroke-opacity:1"
         d="m 263.20106,246.88342 c -0.15859,-8.75455 0.0225,-17.82623 -4.64329,-25.24363 -7.42604,-11.48202 -21.50929,-14.38997 -33.73199,-6.96507 l -1.51311,0.91917 c -23.2009,-7.67144 -31.47236,-2.846 -41.97223,0.95373 -0.57471,7.7638 3.26495,4.30931 6.55116,4.5557 8.35061,-4.70739 19.8093,-4.49733 29.75453,0.10588 l -0.86954,1.36099 c -13.03773,20.40642 -5.25932,53.63807 11.98883,51.21977 v -4e-5 c 10.2006,-1.43019 16.88739,-17.21676 13.95766,-32.56937 -1.29578,-6.79023 -3.84501,-12.65929 -8.89325,-17.96413 -1.26284,-1.32703 -4.65512,-3.72255 -4.59844,-3.77174 4.2208,-3.02362 7.49476,-3.40807 11.026,-2.74661 4.70747,0.88179 10.11114,3.02697 12.7912,8.87688 2.30321,3.64059 3.42725,12.62272 3.33246,21.26847 m -31.71163,19.08418 c -8.17958,-3.88146 -8.31744,-26.44677 -2.00716,-38.52686 1.68612,-3.22784 1.15884,-3.64186 4.07263,-0.73964 4.01839,4.00244 6.84147,9.91332 8.28693,14.95712 3.33876,11.65036 -3.60052,27.51335 -10.3524,24.30938 z"
         id="path5333-2-6"
         inkscape:connector-curvature="0"
         sodipodi:nodetypes="cccccccssssscsccsssss" /><rect
         style="opacity:1;fill:#d90000;fill-opacity:1;stroke:none;stroke-width:0.25955;stroke-miterlimit:4;stroke-dasharray:0.519101, 0.25955;stroke-dashoffset:0;stroke-opacity:1"
         id="rect5459-7"
         width="6.8200173"
         height="46.680058"
         x="-263.20105"
         y="246.86217"
         transform="scale(-1,1)"
         ry="0" /></g><rect
       style="fill:#d90000;fill-opacity:1;stroke:#000000;stroke-width:0;stroke-linecap:butt;stroke-linejoin:round;stroke-dasharray:none;stroke-opacity:1"
       id="rect23"
       width="11.937488"
       height="1.7522863"
       x="55"
       y="80.154915" /><rect
       style="fill:#d90000;fill-opacity:1;stroke:#000000;stroke-width:0;stroke-linecap:butt;stroke-linejoin:round;stroke-dasharray:none;stroke-opacity:1"
       id="rect23-9"
       width="64.843086"
       height="1.7522875"
       x="80.218559"
       y="-55.869602"
       transform="matrix(4.5349729e-5,1,-0.99999935,0.00113921,0,0)" /><rect
       style="fill:#d90000;fill-opacity:1;stroke:#000000;stroke-width:0;stroke-linecap:butt;stroke-linejoin:round;stroke-dasharray:none;stroke-opacity:1"
       id="rect23-3"
       width="11.970608"
       height="1.7522863"
       x="54.123825"
       y="143.43732" /><ellipse
       style="fill:#ffffff;fill-opacity:1;stroke:#000000;stroke-width:1.34586;stroke-linecap:butt;stroke-linejoin:round;stroke-dasharray:none;stroke-opacity:1"
       id="path23"
       cx="129.90218"
       cy="55"
       rx="5.0978251"
       ry="4.9966168" /><rect
       style="fill:#ffffff;fill-opacity:1;stroke:#000000;stroke-width:1;stroke-linecap:butt;stroke-linejoin:round;stroke-dasharray:none;stroke-opacity:1"
       id="rect24"
       width="3.850194e-12"
       height="4.9999995"
       x="130"
       y="60" /><rect
       style="fill:#000000;fill-opacity:1;stroke:#000000;stroke-width:0;stroke-linecap:round;stroke-linejoin:round;stroke-dasharray:none;stroke-opacity:1"
       id="rect26"
       width="8.0444088"
       height="1.1898944"
       x="134.50238"
       y="79.703506" /><circle
       style="fill:#ffffff;fill-opacity:1;stroke:#d90000;stroke-width:1.7;stroke-linecap:round;stroke-linejoin:round;stroke-dasharray:none;stroke-opacity:1"
       id="path28"
       cx="55"
       cy="112.49999"
       r="7.5" /><rect
       style="fill:#7b7b7b;fill-opacity:1;stroke:#7b7b7b;stroke-width:0.708505;stroke-linecap:round;stroke-linejoin:round;stroke-opacity:1"
       id="rect1"
       width="4.8125987"
       height="1.4914945"
       x="158.85426"
       y="164.00426" /><rect
       style="fill:#7b7b7b;fill-opacity:1;stroke:#7b7b7b;stroke-width:0.708505;stroke-linecap:round;stroke-linejoin:round;stroke-opacity:1"
       id="rect1-8"
       width="4.8125987"
       height="1.4914945"
       x="158.83315"
       y="79.854248" /><rect
       style="fill:#7b7b7b;fill-opacity:1;stroke:#7b7b7b;stroke-width:0.708505;stroke-linecap:round;stroke-linejoin:round;stroke-opacity:1"
       id="rect1-5"
       width="4.8125987"
       height="1.4914945"
       x="158.85426"
       y="120.34174" /><path
       style="fill:#bdff30;stroke:#000000;stroke-width:0.7;stroke-linecap:round;stroke-linejoin:round;stroke-opacity:1"
       d="M 95.000002,62.499999 C 117.5,52.499998 117.5,52.499998 117.5,52.499998"
       id="path5" /><path
       sodipodi:type="star"
       style="fill:#000000;fill-opacity:1;stroke:#000000;stroke-width:0.7;stroke-linecap:round;stroke-linejoin:round;stroke-opacity:1"
       id="path7"
       inkscape:flatsided="true"
       sodipodi:sides="3"
       sodipodi:cx="116"
       sodipodi:cy="57.499996"
       sodipodi:r1="2.9154761"
       sodipodi:r2="1.457738"
       sodipodi:arg1="-0.54041948"
       sodipodi:arg2="0.50677807"
       inkscape:rounded="0"
       inkscape:randomized="0"
       d="m 118.5,55.999996 -2.45096,4.415064 -2.59808,-4.330127 z"
       inkscape:transform-center-x="-0.057497776"
       inkscape:transform-center-y="0.59746542"
       transform="matrix(0.77797915,0.04673625,-0.05253541,0.87451283,30.890201,-3.4725127)" /><path
       sodipodi:type="star"
       style="fill:#000000;fill-opacity:1;stroke:#000000;stroke-width:0.7;stroke-linecap:round;stroke-linejoin:round;stroke-opacity:1"
       id="path7-5"
       inkscape:flatsided="true"
       sodipodi:sides="3"
       sodipodi:cx="116"
       sodipodi:cy="57.499996"
       sodipodi:r1="2.9154761"
       sodipodi:r2="1.457738"
       sodipodi:arg1="-0.54041948"
       sodipodi:arg2="0.50677807"
       inkscape:rounded="0"
       inkscape:randomized="0"
       d="m 118.5,55.999996 -2.45096,4.415064 -2.59808,-4.330127 z"
       inkscape:transform-center-x="-0.057497776"
       inkscape:transform-center-y="0.59746542"
       transform="matrix(0.77797915,0.04673625,-0.05253541,0.87451283,30.890201,119.24255)" /></g><text
     xml:space="preserve"
     style="font-size:3.175px;text-align:start;writing-mode:lr-tb;direction:ltr;text-anchor:start;fill:#000000;fill-opacity:1;stroke:#000000;stroke-width:0.2;stroke-linecap:round;stroke-linejoin:round;stroke-dasharray:none;stroke-opacity:1"
     x="50.030834"
     y="91.981659"
     id="text28"><tspan
       sodipodi:role="line"
       id="tspan28"
       style="stroke-width:0.2"
       x="50.030834"
       y="91.981659">200°C</tspan></text><ellipse
     style="fill:#ffffff;fill-opacity:1;stroke:#000000;stroke-width:1.34586;stroke-linecap:butt;stroke-linejoin:round;stroke-dasharray:none;stroke-opacity:1"
     id="path23-7"
     cx="71.73037"
     cy="-141.67792"
     rx="5.0978251"
     ry="4.9966168"
     transform="rotate(84.870823)" /><rect
     style="fill:#000000;fill-opacity:1;stroke:#000000;stroke-width:0;stroke-linecap:round;stroke-linejoin:round;stroke-dasharray:none;stroke-opacity:1"
     id="rect26-2"
     width="8.0444088"
     height="1.1898944"
     x="135.14951"
     y="134.91179" /><ellipse
     style="fill:#ffffff;fill-opacity:1;stroke:#000000;stroke-width:1.34586;stroke-linecap:butt;stroke-linejoin:round;stroke-dasharray:none;stroke-opacity:1"
     id="path23-7-8"
     cx="147.76588"
     cy="-135.50264"
     rx="5.0978251"
     ry="4.9966168"
     transform="rotate(84.870823)" /><rect
     style="fill:#000000;fill-opacity:1;stroke:#000000;stroke-width:0;stroke-linecap:round;stroke-linejoin:round;stroke-dasharray:none;stroke-opacity:1"
     id="rect26-2-9"
     width="8.6893377"
     height="1.1858768"
     x="-73.689339"
     y="137.14433"
     transform="scale(-1,1)" /><ellipse
     style="fill:#ffffff;fill-opacity:1;stroke:#000000;stroke-width:1.36139;stroke-linecap:butt;stroke-linejoin:round;stroke-dasharray:none;stroke-opacity:1"
     id="path23-7-8-3"
     cx="132.02899"
     cy="71.814735"
     rx="5.0990896"
     ry="5.11128"
     transform="matrix(-0.09144671,0.99580997,0.99617318,0.08740131,0,0)" /><text
     xml:space="preserve"
     style="font-size:3.175px;text-align:start;writing-mode:lr-tb;direction:ltr;text-anchor:start;fill:#000000;fill-opacity:1;stroke:#000000;stroke-width:0.2;stroke-linecap:round;stroke-linejoin:round;stroke-dasharray:none;stroke-opacity:1"
     x="7.5"
     y="2.5122552"
     id="text26"><tspan
       sodipodi:role="line"
       id="tspan26"
       style="stroke-width:0.2;stroke-dasharray:none"
       x="7.5"
       y="2.5122552">200l/s</tspan></text><text
     xml:space="preserve"
     style="font-size:3.175px;text-align:start;writing-mode:lr-tb;direction:ltr;text-anchor:start;fill:#000000;fill-opacity:1;stroke:#000000;stroke-width:0.2;stroke-linecap:round;stroke-linejoin:round;stroke-dasharray:none;stroke-opacity:1"
     x="87.5"
     y="33.330212"
     id="text27"><tspan
       sodipodi:role="line"
       id="tspan27"
       style="stroke-width:0.2"
       x="87.5"
       y="33.330212">100%</tspan></text><text
     xml:space="preserve"
     style="font-size:3.175px;text-align:start;writing-mode:lr-tb;direction:ltr;text-anchor:start;fill:#000000;fill-opacity:1;stroke:#000000;stroke-width:0.2;stroke-linecap:round;stroke-linejoin:round;stroke-dasharray:none;stroke-opacity:1"
     x="87.169022"
     y="160.68214"
     id="text27-3"><tspan
       sodipodi:role="line"
       id="tspan27-7"
       style="stroke-width:0.2"
       x="87.169022"
       y="160.68214">100%</tspan></text><path
     style="fill:#878787;fill-opacity:1;stroke:#7b7b7b;stroke-width:1.54625;stroke-linecap:round;stroke-linejoin:round;stroke-dasharray:none;stroke-opacity:1"
     d="m 161.29751,143.47702 c 0,-84.797855 0,-84.797855 0,-84.797855"
     id="path29" /><rect
     style="fill:#ff0f0f;fill-opacity:1;stroke:#f60000;stroke-width:1.7;stroke-linecap:round;stroke-linejoin:round;stroke-dasharray:none;stroke-opacity:1"
     id="rect29"
     width="10"
     height="2.4999998"
     x="156.65001"
     y="134.98021" /><text
     xml:space="preserve"
     style="font-size:3.175px;text-align:start;writing-mode:lr-tb;direction:ltr;text-anchor:start;fill:#ff0f0f;fill-opacity:1;stroke:#f60000;stroke-width:0.2;stroke-linecap:round;stroke-linejoin:round;stroke-dasharray:none;stroke-opacity:1"
     x="170"
     y="138.3302"
     id="text29"><tspan
       sodipodi:role="line"
       id="tspan29"
       style="stroke-width:0.2;stroke-dasharray:none"
       x="170"
       y="138.3302">10mm</tspan></text><text
     xml:space="preserve"
     style="font-size:3.175px;text-align:start;writing-mode:lr-tb;direction:ltr;text-anchor:start;fill:#7b7b7b;fill-opacity:1;stroke:#7b7b7b;stroke-width:0.2;stroke-linecap:round;stroke-linejoin:round;stroke-dasharray:none;stroke-opacity:1"
     x="167.5"
     y="144.29196"
     id="text29-1"><tspan
       sodipodi:role="line"
       id="tspan29-1"
       style="fill:#7b7b7b;fill-opacity:1;stroke:#7b7b7b;stroke-width:0.2;stroke-dasharray:none;stroke-opacity:1"
       x="167.5"
       y="144.29196">00mm</tspan></text><text
     xml:space="preserve"
     style="font-size:3.175px;text-align:start;writing-mode:lr-tb;direction:ltr;text-anchor:start;fill:#7b7b7b;fill-opacity:1;stroke:#7b7b7b;stroke-width:0.2;stroke-linecap:round;stroke-linejoin:round;stroke-dasharray:none;stroke-opacity:1"
     x="167.5"
     y="100.83022"
     id="text29-1-6"><tspan
       sodipodi:role="line"
       id="tspan29-1-1"
       style="fill:#7b7b7b;fill-opacity:1;stroke:#7b7b7b;stroke-width:0.2;stroke-dasharray:none;stroke-opacity:1"
       x="167.5"
       y="100.83022">1000mm</tspan></text><text
     xml:space="preserve"
     style="font-size:4.93889px;text-align:start;writing-mode:lr-tb;direction:ltr;text-anchor:start;fill:#000000;fill-opacity:1;stroke:#000000;stroke-width:0.2;stroke-linecap:round;stroke-linejoin:round;stroke-dasharray:none;stroke-opacity:1"
     x="56.482014"
     y="139.52104"
     id="text28-8"><tspan
       sodipodi:role="line"
       id="tspan28-2"
       style="font-size:4.93889px;stroke-width:0.2"
       x="56.482014"
       y="139.52104">TT</tspan></text><g
     id="g1"
     transform="translate(-0.11238611,-105.17664)"><text
       xml:space="preserve"
       style="font-size:3.175px;text-align:start;writing-mode:lr-tb;direction:ltr;text-anchor:start;fill:#7b7b7b;fill-opacity:1;stroke:#7b7b7b;stroke-width:0.2;stroke-linecap:round;stroke-linejoin:round;stroke-dasharray:none;stroke-opacity:1"
       x="167.5"
       y="165.96175"
       id="text29-1-2"><tspan
         sodipodi:role="line"
         id="tspan29-1-2"
         style="fill:#7b7b7b;fill-opacity:1;stroke:#7b7b7b;stroke-width:0.2;stroke-dasharray:none;stroke-opacity:1"
         x="167.5"
         y="165.96175">2000mm</tspan></text></g><text
     xml:space="preserve"
     style="font-size:4.93889px;text-align:start;writing-mode:lr-tb;direction:ltr;text-anchor:start;fill:#000000;fill-opacity:1;stroke:#000000;stroke-width:0.2;stroke-linecap:round;stroke-linejoin:round;stroke-dasharray:none;stroke-opacity:1"
     x="145.10001"
     y="137.02104"
     id="text28-8-7"><tspan
       sodipodi:role="line"
       id="tspan28-2-1"
       style="font-size:4.93889px;stroke-width:0.2"
       x="145.10001"
       y="137.02104">LT</tspan></text><text
     xml:space="preserve"
     style="font-size:4.93889px;text-align:start;writing-mode:lr-tb;direction:ltr;text-anchor:start;fill:#000000;fill-opacity:1;stroke:#000000;stroke-width:0.2;stroke-linecap:round;stroke-linejoin:round;stroke-dasharray:none;stroke-opacity:1"
     x="144.51738"
     y="60.730209"
     id="text28-8-7-6"><tspan
       sodipodi:role="line"
       id="tspan28-2-1-1"
       style="font-size:4.93889px;stroke-width:0.2"
       x="144.51738"
       y="60.730209">LT</tspan></text><text
     xml:space="preserve"
     style="font-size:4.93889px;text-align:start;writing-mode:lr-tb;direction:ltr;text-anchor:start;fill:#000000;fill-opacity:1;stroke:#000000;stroke-width:0.2;stroke-linecap:round;stroke-linejoin:round;stroke-dasharray:none;stroke-opacity:1"
     x="127.01739"
     y="35.730213"
     id="text28-8-7-6-2"><tspan
       sodipodi:role="line"
       id="tspan28-2-1-1-1"
       style="font-size:4.93889px;stroke-width:0.2"
       x="127.01739"
       y="35.730213">LT</tspan></text><path
     style="fill:#bdff30;stroke:#000000;stroke-width:0.7;stroke-linecap:round;stroke-linejoin:round;stroke-opacity:1"
     d="M 95.500006,163.33022 C 118,153.33022 118,153.33022 118,153.33022"
     id="path5-8" /><path
     style="fill:#bdff30;stroke:#000000;stroke-width:0.531688;stroke-linecap:round;stroke-linejoin:round;stroke-opacity:1"
     d="m 5.4038484,9.8302149 c 10.0961516,0 10.0961516,0 10.0961516,0"
     id="path6" /><path
     sodipodi:type="star"
     style="fill:#000000;fill-opacity:1;stroke:#000000;stroke-width:0.7;stroke-linecap:round;stroke-linejoin:round;stroke-opacity:1"
     id="path8"
     inkscape:flatsided="true"
     sodipodi:sides="3"
     sodipodi:cx="20"
     sodipodi:cy="24.499998"
     sodipodi:r1="0.75503945"
     sodipodi:r2="0.37751973"
     sodipodi:arg1="1.5707963"
     sodipodi:arg2="2.6179939"
     inkscape:rounded="0"
     inkscape:randomized="0"
     d="m 20,25.255038 -0.653883,-1.13256 1.307766,0 z"
     transform="matrix(2.3016943e-6,-1.2185026,1.3881828,2.0203538e-6,-17.558654,34.200216)"
     inkscape:transform-center-x="-0.26203174" /></svg>
