<?xml version="1.0" encoding="UTF-8" standalone="no"?>
<!-- Created with Inkscape (http://www.inkscape.org/) -->

<svg
   width="193.9635mm"
   height="178.33022mm"
   viewBox="0 0 193.9635 178.33022"
   version="1.1"
   id="svg1"
   xml:space="preserve"
   inkscape:version="1.4 (86a8ad7, 2024-10-11)"
   sodipodi:docname="SVG vat.svg"
   inkscape:export-filename="SVG vat.svg"
   inkscape:export-xdpi="137.50009"
   inkscape:export-ydpi="137.50009"
   xmlns:inkscape="http://www.inkscape.org/namespaces/inkscape"
   xmlns:sodipodi="http://sodipodi.sourceforge.net/DTD/sodipodi-0.dtd"
   xmlns="http://www.w3.org/2000/svg"
   xmlns:svg="http://www.w3.org/2000/svg"><sodipodi:namedview
     id="namedview1"
     pagecolor="#ffffff"
     bordercolor="#000000"
     borderopacity="0.25"
     inkscape:showpageshadow="2"
     inkscape:pageopacity="0.0"
     inkscape:pagecheckerboard="0"
     inkscape:deskcolor="#d1d1d1"
     inkscape:document-units="mm"
     inkscape:lockguides="false"
     showgrid="true"
     inkscape:zoom="11.313709"
     inkscape:cx="408.00061"
     inkscape:cy="514.19921"
     inkscape:window-width="1920"
     inkscape:window-height="991"
     inkscape:window-x="2551"
     inkscape:window-y="345"
     inkscape:window-maximized="1"
     inkscape:current-layer="waterTotaal"
     inkscape:export-bgcolor="#ffffffff"
     showguides="false"><inkscape:grid
       id="grid1"
       units="mm"
       originx="1.7112465e-07"
       originy="-21.669785"
       spacingx="0.50000001"
       spacingy="0.49999999"
       empcolor="#0099e5"
       empopacity="0.30196078"
       color="#0099e5"
       opacity="0.14901961"
       empspacing="5"
       enabled="true"
       visible="true"
       dotted="false" /><inkscape:page
       x="2.7223593e-23"
       y="0"
       width="193.9635"
       height="178.33022"
       id="page2"
       margin="0"
       bleed="0" /></sodipodi:namedview><defs
     id="defs1" /><path
     style="fill:#ffffff;stroke:#000000;stroke-width:1;stroke-linecap:round;stroke-linejoin:round;stroke-dasharray:3, 3;stroke-dashoffset:0;stroke-opacity:1"
     d="m 130,25.830215 v -10 h 45 l 0,46.614397"
     id="path2"
     sodipodi:nodetypes="cccc" /><g
     inkscape:label="Laag 1"
     inkscape:groupmode="layer"
     id="layer1"
     transform="translate(1.7112467e-7,-21.669783)"><rect
       style="fill:#000000;stroke-width:0.264583"
       id="rect7"
       width="110"
       height="0.99999946"
       x="-1.7112467e-07"
       y="27.5"
       ry="0" /><rect
       style="fill:#000000;stroke-width:0.264583"
       id="rect8"
       width="102.5"
       height="0.99999928"
       x="-1.7112467e-07"
       y="35" /><rect
       style="fill:#000000;stroke-width:0.264583"
       id="rect9"
       width="1"
       height="19.499998"
       x="109"
       y="28" /><rect
       style="fill:#000000;stroke-width:0.264583"
       id="rect10"
       width="1"
       height="12.5"
       x="101.50001"
       y="35" /><rect
       style="fill:#ffffff;fill-opacity:1;stroke:#000000;stroke-width:1.002;stroke-linecap:butt;stroke-linejoin:round;stroke-dasharray:none;stroke-opacity:1"
       id="rect13"
       width="70"
       height="102.49999"
       x="70"
       y="62.5"
       ry="1.4210855e-14" /><rect
       style="fill:#000000;stroke-width:0.183983"
       id="rect9-5"
       width="1"
       height="9.4289675"
       x="109"
       y="68.07103" /><rect
       style="fill:#000000;stroke-width:0.232055"
       id="rect10-5"
       width="1"
       height="9.6153831"
       x="101.50001"
       y="67.884613" /><rect
       style="fill:#000000;stroke-width:0.183983"
       id="rect9-5-1"
       width="1"
       height="9.4289675"
       x="108.99959"
       y="190.4975" /><rect
       style="fill:#000000;stroke-width:0.232055"
       id="rect10-5-6"
       width="1"
       height="9.6153831"
       x="101.4996"
       y="190.31108" /><rect
       style="fill:#ffffff;fill-opacity:1;stroke:#fffefe;stroke-width:1.002;stroke-linecap:butt;stroke-linejoin:round;stroke-dasharray:none;stroke-opacity:1"
       id="rect16"
       width="68"
       height="5.5000019"
       x="71"
       y="60"
       ry="0" /></g><g
     id="weerstandStand"
     inkscape:label="weerstandstand"
     style="fill:#ffffff;fill-opacity:1"><ellipse
       style="fill:#ffffff;fill-opacity:1;stroke:#ffffff;stroke-width:0;stroke-linecap:round;stroke-linejoin:round;stroke-dasharray:none;stroke-opacity:1"
       id="weerstandAan"
       cx="55"
       cy="112.07707"
       rx="6.9770002"
       ry="6.9229288"
       transform="translate(1.7112467e-7,-21.669783)" /></g><g
     id="waterTotaal"
     transform="translate(1.7112467e-7,-21.669783)"
     style="fill:#0000d7;fill-opacity:1"><rect
       style="fill:#0000d7;fill-opacity:1;stroke:#fffefe;stroke-width:0;stroke-linecap:butt;stroke-linejoin:round;stroke-dasharray:none;stroke-opacity:1"
       id="waterInVatBodem"
       width="69"
       height="6.9999995"
       x="70.5"
       y="157.5"
       inkscape:label="waterInVatBodem" /><rect
       style="fill:#0000d7;fill-opacity:1;stroke:#fffefe;stroke-width:0;stroke-linecap:butt;stroke-linejoin:round;stroke-dasharray:none;stroke-opacity:1"
       id="waterInVat"
       width="69"
       height="6.4999952"
       x="70.5"
       y="151.5"
       inkscape:label="waterInVat" /><rect
       style="fill:#0000d7;fill-opacity:1;stroke:#fffefe;stroke-width:0;stroke-linecap:butt;stroke-linejoin:round;stroke-dasharray:none;stroke-opacity:1"
       id="WaterBuisBoven2"
       width="6.5"
       height="15.000001"
       x="102.5"
       y="32.5"
       inkscape:label="WaterVBuisBoven" /><rect
       style="fill:#0000d7;fill-opacity:1;stroke:#fffefe;stroke-width:0;stroke-linecap:butt;stroke-linejoin:round;stroke-dasharray:none;stroke-opacity:1"
       id="WaterBuisBoven"
       width="109"
       height="6.500001"
       x="0"
       y="28.499998"
       inkscape:label="waterHBuisBoven" /><rect
       style="fill:#0000d7;fill-opacity:1;stroke:#fffefe;stroke-width:0;stroke-linecap:butt;stroke-linejoin:round;stroke-dasharray:none;stroke-opacity:1"
       id="waterBeneden"
       width="0.0080000004"
       height="9.5024967"
       x="105.74533"
       y="190.4975"
       inkscape:label="waterBeneden" /><rect
       style="fill:#0000d7;fill-opacity:1;stroke:#fffefe;stroke-width:0;stroke-linecap:butt;stroke-linejoin:round;stroke-dasharray:none;stroke-opacity:1"
       id="waterval"
       width="0.0080000004"
       height="95.701981"
       x="105.745"
       y="68.060783"
       inkscape:label="waterval" /><rect
       style="fill:#0000d7;fill-opacity:1;stroke:#fffefe;stroke-width:0;stroke-linecap:butt;stroke-linejoin:round;stroke-dasharray:none;stroke-opacity:1"
       id="rect21"
       width="6.4999847"
       height="7.426476"
       x="102.4996"
       y="162.5"
       inkscape:label="waterOnderVat" /></g><g
     id="KlepBoven"
     transform="translate(1.7112467e-7,-21.669783)"
     style="fill:#ffffff;fill-opacity:1"><path
       sodipodi:type="star"
       style="fill:#ffffff;fill-opacity:1;stroke:#000000;stroke-width:1.49706;stroke-dasharray:none;stroke-opacity:1"
       id="path13"
       inkscape:flatsided="true"
       sodipodi:sides="3"
       sodipodi:cx="106.25"
       sodipodi:cy="37.5"
       sodipodi:r1="10.077821"
       sodipodi:r2="5.0389104"
       sodipodi:arg1="-2.6224463"
       sodipodi:arg2="-1.5752488"
       inkscape:rounded="0"
       inkscape:randomized="0"
       d="m 97.500002,32.499999 17.455128,-0.07772 -8.66026,15.15544 z"
       inkscape:transform-center-x="0.016031111"
       inkscape:transform-center-y="1.5674319"
       transform="matrix(0.71450588,0,0,0.62697259,29.693685,27.396731)" /><path
       sodipodi:type="star"
       style="fill:#ffffff;fill-opacity:1;stroke:#000000;stroke-width:1.49742;stroke-dasharray:none;stroke-opacity:1"
       id="path13-8"
       inkscape:flatsided="true"
       sodipodi:sides="3"
       sodipodi:cx="106.25"
       sodipodi:cy="37.5"
       sodipodi:r1="10.077821"
       sodipodi:r2="5.0389104"
       sodipodi:arg1="-2.6224463"
       sodipodi:arg2="-1.5752488"
       inkscape:rounded="0"
       inkscape:randomized="0"
       d="m 97.500002,32.499999 17.455128,-0.07772 -8.66026,15.15544 z"
       inkscape:transform-center-x="0.016045384"
       inkscape:transform-center-y="-1.5677333"
       transform="matrix(0.71545375,0,0,-0.62709353,29.544842,87.929704)" /></g><g
     id="KlepBeneden"
     transform="translate(1.7112467e-7,-21.669783)"
     style="fill:#ffffff;fill-opacity:1"><path
       sodipodi:type="star"
       style="fill:#ffffff;fill-opacity:1;stroke:#000000;stroke-width:1.49706;stroke-dasharray:none;stroke-opacity:1"
       id="path13-85"
       inkscape:flatsided="true"
       sodipodi:sides="3"
       sodipodi:cx="106.25"
       sodipodi:cy="37.5"
       sodipodi:r1="10.077821"
       sodipodi:r2="5.0389104"
       sodipodi:arg1="-2.6224463"
       sodipodi:arg2="-1.5752488"
       inkscape:rounded="0"
       inkscape:randomized="0"
       d="m 97.500002,32.499999 17.455128,-0.07772 -8.66026,15.15544 z"
       inkscape:transform-center-x="0.016031111"
       inkscape:transform-center-y="1.5674319"
       transform="matrix(0.71450588,0,0,0.62697259,29.69328,149.8232)" /><path
       sodipodi:type="star"
       style="fill:#ffffff;fill-opacity:1;stroke:#000000;stroke-width:1.49742;stroke-dasharray:none;stroke-opacity:1"
       id="klepBeneden"
       inkscape:flatsided="true"
       sodipodi:sides="3"
       sodipodi:cx="106.25"
       sodipodi:cy="37.5"
       sodipodi:r1="10.077821"
       sodipodi:r2="5.0389104"
       sodipodi:arg1="-2.6224463"
       sodipodi:arg2="-1.5752488"
       inkscape:rounded="0"
       inkscape:randomized="0"
       d="m 97.500002,32.499999 17.455128,-0.07772 -8.66026,15.15544 z"
       inkscape:transform-center-x="0.016045384"
       inkscape:transform-center-y="-1.5677333"
       transform="matrix(0.71545375,0,0,-0.62709353,29.544437,210.35617)"
       inkscape:label="klepBeneden1" /></g><text
     xml:space="preserve"
     style="font-size:3.175px;text-align:start;writing-mode:lr-tb;direction:ltr;text-anchor:start;fill:#000000;fill-opacity:1;stroke:#000000;stroke-width:0.2;stroke-linecap:round;stroke-linejoin:round;stroke-dasharray:none;stroke-opacity:1"
     x="7.5"
     y="2.5122559"
     id="debiet"><tspan
       sodipodi:role="line"
       id="tspan26"
       style="stroke-width:0.2;stroke-dasharray:none"
       x="7.5"
       y="2.5122559">200l/s</tspan></text><g
     id="niveauIndicatorTotaal"
     transform="matrix(0.99986894,0,0,1.02979,13.781904,-23.859325)"><g
       id="hoogteLijn"
       transform="matrix(1.0072359,0,0,0.90213047,-1.1667872,7.799604)"><rect
         style="fill:#7b7b7b;fill-opacity:1;stroke:#7b7b7b;stroke-width:0.708505;stroke-linecap:round;stroke-linejoin:round;stroke-opacity:1"
         id="rect1"
         width="4.8125987"
         height="1.4914945"
         x="158.85426"
         y="166.80727" /><rect
         style="fill:#7b7b7b;fill-opacity:1;stroke:#7b7b7b;stroke-width:0.708487;stroke-linecap:round;stroke-linejoin:round;stroke-opacity:1"
         id="rect1-8"
         width="4.812294"
         height="1.4915127"
         x="158.90906"
         y="78.747124" /><rect
         style="fill:#7b7b7b;fill-opacity:1;stroke:#7b7b7b;stroke-width:0.708505;stroke-linecap:round;stroke-linejoin:round;stroke-opacity:1"
         id="rect1-5"
         width="4.8125987"
         height="1.4914945"
         x="158.85426"
         y="120.34174" /><path
         style="fill:#878787;fill-opacity:1;stroke:#7b7b7b;stroke-width:1.56777;stroke-linecap:round;stroke-linejoin:round;stroke-dasharray:none;stroke-opacity:1"
         d="m 161.29751,167.79029 c 0,-87.174367 0,-87.174367 0,-87.174367"
         id="path29" /></g><rect
       style="display:inline;fill:#ff0f0f;fill-opacity:1;stroke:#f60000;stroke-width:1.21713;stroke-linecap:round;stroke-linejoin:round;stroke-dasharray:none;stroke-opacity:1"
       id="hoogteIndicator"
       width="6.2828693"
       height="2.039676"
       x="158.10857"
       y="154.85176" /><text
       xml:space="preserve"
       style="font-size:3.175px;text-align:start;writing-mode:lr-tb;direction:ltr;text-anchor:start;fill:#ff0f0f;fill-opacity:1;stroke:#f60000;stroke-width:0.2;stroke-linecap:round;stroke-linejoin:round;stroke-dasharray:none;stroke-opacity:1"
       x="166.12697"
       y="156.97868"
       id="hoogteTekst"><tspan
         sodipodi:role="line"
         id="tspan29"
         style="stroke-width:0.2;stroke-dasharray:none"
         x="166.12697"
         y="156.97868">2000mm</tspan></text><text
       xml:space="preserve"
       style="font-size:3.175px;text-align:start;writing-mode:lr-tb;direction:ltr;text-anchor:start;fill:#7b7b7b;fill-opacity:1;stroke:#7b7b7b;stroke-width:0.2;stroke-linecap:round;stroke-linejoin:round;stroke-dasharray:none;stroke-opacity:1"
       x="147.69835"
       y="159.77876"
       id="minHoogte"><tspan
         sodipodi:role="line"
         id="tspan29-1"
         style="fill:#7b7b7b;fill-opacity:1;stroke:#7b7b7b;stroke-width:0.2;stroke-dasharray:none;stroke-opacity:1"
         x="147.69835"
         y="159.77876">00mm</tspan></text><text
       xml:space="preserve"
       style="font-size:3.175px;text-align:start;writing-mode:lr-tb;direction:ltr;text-anchor:start;fill:#7b7b7b;fill-opacity:1;stroke:#7b7b7b;stroke-width:0.2;stroke-linecap:round;stroke-linejoin:round;stroke-dasharray:none;stroke-opacity:1"
       x="144.16347"
       y="117.95564"
       id="middenHoogte"><tspan
         sodipodi:role="line"
         id="tspan29-1-1"
         style="fill:#7b7b7b;fill-opacity:1;stroke:#7b7b7b;stroke-width:0.2;stroke-dasharray:none;stroke-opacity:1"
         x="144.16347"
         y="117.95564">1000mm</tspan></text><text
       xml:space="preserve"
       style="font-size:3.175px;text-align:start;writing-mode:lr-tb;direction:ltr;text-anchor:start;fill:#7b7b7b;fill-opacity:1;stroke:#7b7b7b;stroke-width:0.2;stroke-linecap:round;stroke-linejoin:round;stroke-dasharray:none;stroke-opacity:1"
       x="144.16145"
       y="80.461327"
       id="maxHoogte"><tspan
         sodipodi:role="line"
         id="tspan29-1-2"
         style="fill:#7b7b7b;fill-opacity:1;stroke:#7b7b7b;stroke-width:0.2;stroke-dasharray:none;stroke-opacity:1"
         x="144.16145"
         y="80.461327">2000mm</tspan></text></g><g
     id="niveauschakelaar"
     transform="translate(1.7112467e-7,-21.669783)"
     style="fill:#de0000;fill-opacity:1"><rect
       style="fill:#de0000;fill-opacity:1;stroke:#000000;stroke-width:0.9;stroke-linecap:round;stroke-linejoin:round;stroke-dasharray:none;stroke-opacity:1"
       id="rect26"
       width="8.2115269"
       height="0.86360943"
       x="134.5"
       y="80.136391" /><ellipse
       style="fill:#de0000;fill-opacity:1;stroke:#000000;stroke-width:1.51874;stroke-linecap:butt;stroke-linejoin:round;stroke-dasharray:none;stroke-opacity:1"
       id="niveauMax"
       cx="92.979401"
       cy="-140.41666"
       rx="5.7119999"
       ry="5.6784086"
       transform="matrix(0.09068327,0.99587978,-0.99610831,0.08813757,0,0)"
       inkscape:label="niveauMax" /><text
       xml:space="preserve"
       style="font-size:4.93889px;text-align:start;writing-mode:lr-tb;direction:ltr;text-anchor:start;fill:#000000;fill-opacity:1;stroke:#000000;stroke-width:0.5;stroke-linecap:round;stroke-linejoin:round;stroke-dasharray:none;stroke-opacity:1"
       x="144.37865"
       y="82.25"
       id="text28-8-7-5"><tspan
         sodipodi:role="line"
         id="tspan28-2-1-17"
         style="font-size:4.93889px;fill:#000000;fill-opacity:1;stroke:#000000;stroke-width:0.5;stroke-dasharray:none;stroke-opacity:1"
         x="144.37865"
         y="82.25">LIT</tspan></text></g><g
     id="ultrasoneNiveaumeter"
     transform="translate(1.7112467e-7,-21.669783)"
     style="fill:#ffffff;fill-opacity:1"><ellipse
       style="fill:#ffffff;fill-opacity:1;stroke:#000000;stroke-width:1.34586;stroke-linecap:butt;stroke-linejoin:round;stroke-dasharray:none;stroke-opacity:1"
       id="path23"
       cx="129.90218"
       cy="55"
       rx="5.0978251"
       ry="4.9966168" /><rect
       style="fill:#ffffff;fill-opacity:1;stroke:#000000;stroke-width:1.67809;stroke-linecap:butt;stroke-linejoin:round;stroke-dasharray:none;stroke-opacity:1"
       id="rect24"
       width="3.850194e-12"
       height="5.5000014"
       x="130"
       y="60.5" /><text
       xml:space="preserve"
       style="font-size:4.93889px;text-align:start;writing-mode:lr-tb;direction:ltr;text-anchor:start;fill:#000000;fill-opacity:1;stroke:#000000;stroke-width:0.5;stroke-linecap:round;stroke-linejoin:round;stroke-dasharray:none;stroke-opacity:1"
       x="127.01739"
       y="57.399998"
       id="text28-8-7-6-2"><tspan
         sodipodi:role="line"
         id="tspan28-2-1-1-1"
         style="font-size:4.93889px;fill:#000000;fill-opacity:1;stroke-width:0.5;stroke-dasharray:none"
         x="127.01739"
         y="57.399998">LT</tspan></text></g><g
     id="regelbareKleppen"
     transform="translate(1.7112467e-7,-21.669783)"
     inkscape:label="regelbareKleppen"><path
       sodipodi:type="star"
       style="fill:#000000;fill-opacity:1;stroke:#000000;stroke-width:0.7;stroke-linecap:round;stroke-linejoin:round;stroke-opacity:1"
       id="path7"
       inkscape:flatsided="true"
       sodipodi:sides="3"
       sodipodi:cx="116"
       sodipodi:cy="57.499996"
       sodipodi:r1="2.9154761"
       sodipodi:r2="1.457738"
       sodipodi:arg1="-0.54041948"
       sodipodi:arg2="0.50677807"
       inkscape:rounded="0"
       inkscape:randomized="0"
       d="m 118.5,55.999996 -2.45096,4.415064 -2.59808,-4.330127 z"
       inkscape:transform-center-x="-0.057497776"
       inkscape:transform-center-y="0.59746542"
       transform="matrix(0.77797914,0.04673625,-0.05253541,0.87451282,30.890202,-3.4725126)" /><text
       xml:space="preserve"
       style="font-size:3.175px;text-align:start;writing-mode:lr-tb;direction:ltr;text-anchor:start;fill:#000000;fill-opacity:1;stroke:#000000;stroke-width:0.2;stroke-linecap:round;stroke-linejoin:round;stroke-dasharray:none;stroke-opacity:1"
       x="87.5"
       y="33.330212"
       id="klepstandBoven"
       transform="translate(-1.7112466e-7,21.669784)"><tspan
         sodipodi:role="line"
         id="tspan27"
         style="stroke-width:0.2"
         x="87.5"
         y="33.330212">100%</tspan></text><path
       style="fill:#bdff30;stroke:#000000;stroke-width:0.7;stroke-linecap:round;stroke-linejoin:round;stroke-opacity:1"
       d="M 95.000002,62.499999 C 117.5,52.499998 117.5,52.499998 117.5,52.499998"
       id="path5" /><path
       style="fill:#bdff30;stroke:#000000;stroke-width:0.7;stroke-linecap:round;stroke-linejoin:round;stroke-opacity:1"
       d="M 95.500006,185 C 118,175 118,175 118,175"
       id="path5-8" /><path
       sodipodi:type="star"
       style="fill:#000000;fill-opacity:1;stroke:#000000;stroke-width:0.7;stroke-linecap:round;stroke-linejoin:round;stroke-opacity:1"
       id="path7-5"
       inkscape:flatsided="true"
       sodipodi:sides="3"
       sodipodi:cx="116"
       sodipodi:cy="57.499996"
       sodipodi:r1="2.9154761"
       sodipodi:r2="1.457738"
       sodipodi:arg1="-0.54041948"
       sodipodi:arg2="0.50677807"
       inkscape:rounded="0"
       inkscape:randomized="0"
       d="m 118.5,55.999996 -2.45096,4.415064 -2.59808,-4.330127 z"
       inkscape:transform-center-x="-0.057497776"
       inkscape:transform-center-y="0.59746542"
       transform="matrix(0.77797914,0.04673625,-0.05253541,0.87451282,30.890202,119.24255)" /><text
       xml:space="preserve"
       style="font-size:3.175px;text-align:start;writing-mode:lr-tb;direction:ltr;text-anchor:start;fill:#000000;fill-opacity:1;stroke:#000000;stroke-width:0.2;stroke-linecap:round;stroke-linejoin:round;stroke-dasharray:none;stroke-opacity:1"
       x="87.169022"
       y="160.68214"
       id="KlepstandBeneden"
       transform="translate(-1.7112466e-7,21.669784)"><tspan
         sodipodi:role="line"
         id="tspan27-7"
         style="stroke-width:0.2"
         x="87.169022"
         y="160.68214">100%</tspan></text></g><g
     id="g8"
     inkscape:label="toekomendDebietPijl"
     transform="translate(1.7112467e-7,-21.669783)"><path
       style="fill:#bdff30;stroke:#000000;stroke-width:0.531688;stroke-linecap:round;stroke-linejoin:round;stroke-opacity:1"
       d="m 5.4038482,31.499999 c 10.0961518,0 10.0961518,0 10.0961518,0"
       id="path6" /><path
       sodipodi:type="star"
       style="fill:#000000;fill-opacity:1;stroke:#000000;stroke-width:0.7;stroke-linecap:round;stroke-linejoin:round;stroke-opacity:1"
       id="path8"
       inkscape:flatsided="true"
       sodipodi:sides="3"
       sodipodi:cx="20"
       sodipodi:cy="24.499998"
       sodipodi:r1="0.75503945"
       sodipodi:r2="0.37751973"
       sodipodi:arg1="1.5707963"
       sodipodi:arg2="2.6179939"
       inkscape:rounded="0"
       inkscape:randomized="0"
       d="m 20,25.255038 -0.653883,-1.13256 1.307766,0 z"
       transform="matrix(2.3016943e-6,-1.2185026,1.3881828,2.0203538e-6,-17.558654,55.87)"
       inkscape:transform-center-x="-0.26203174" /></g><g
     id="temperatuurVat"
     transform="translate(1.7112467e-7,-21.669783)"
     style="fill:#de0000;fill-opacity:1"><ellipse
       style="fill:#de0000;fill-opacity:1;stroke:#000000;stroke-width:1.4262;stroke-linecap:butt;stroke-linejoin:round;stroke-dasharray:none;stroke-opacity:1"
       id="temperatuurVatIndicator"
       cx="153.15622"
       cy="73.729874"
       rx="5.3909998"
       ry="5.3057508"
       transform="matrix(-0.08977328,0.99596223,0.99602883,0.08903124,0,0)" /><text
       xml:space="preserve"
       style="font-size:4.58611px;text-align:start;writing-mode:lr-tb;direction:ltr;text-anchor:start;fill:#000000;fill-opacity:1;stroke:#000000;stroke-width:0.5;stroke-linecap:round;stroke-linejoin:round;stroke-dasharray:none;stroke-opacity:1"
       x="56"
       y="161"
       id="text28-8"><tspan
         sodipodi:role="line"
         id="tspan28-2"
         style="font-size:4.58611px;fill:#000000;fill-opacity:1;stroke-width:0.5;stroke-dasharray:none"
         x="56"
         y="161">TIT</tspan></text><rect
       style="fill:#de0000;fill-opacity:1;stroke:#000000;stroke-width:0.9;stroke-linecap:round;stroke-linejoin:round;stroke-dasharray:none;stroke-opacity:1"
       id="rect26-1"
       width="8.2115269"
       height="0.86360943"
       x="64.894241"
       y="159.13638" /></g><g
     id="analogeWaardeTemp"
     transform="translate(1.7112467e-7,-21.669783)"><rect
       style="fill:none;fill-opacity:1;stroke:#646464;stroke-width:1;stroke-linecap:round;stroke-linejoin:round;stroke-dasharray:none;stroke-opacity:1"
       id="rect3"
       width="6.5"
       height="0.49999997"
       x="47"
       y="159" /><rect
       style="fill:none;fill-opacity:1;stroke:#646464;stroke-width:0.948684;stroke-linecap:round;stroke-linejoin:round;stroke-dasharray:none;stroke-opacity:1"
       id="rect2"
       width="13"
       height="4.5000105"
       x="34"
       y="156.99998" /><text
       xml:space="preserve"
       style="font-size:3.175px;text-align:start;writing-mode:lr-tb;direction:ltr;text-anchor:start;fill:#000000;fill-opacity:1;stroke:#000000;stroke-width:0.2;stroke-linecap:round;stroke-linejoin:round;stroke-dasharray:none;stroke-opacity:1"
       x="35.850403"
       y="160.45644"
       id="temperatuurVatWaarde"
       inkscape:label="temperatuurVatWaarde"><tspan
         sodipodi:role="line"
         id="tspan28-3"
         style="stroke-width:0.2"
         x="35.850403"
         y="160.45644">200°C</tspan></text></g><g
     id="warmteweerstand"
     transform="translate(1.7112467e-7,-21.669783)"
     style="fill:#646464;fill-opacity:1;stroke:#646464;stroke-opacity:1"><path
       style="fill:#646464;fill-opacity:1;stroke:#646464;stroke-width:0.264583;stroke-opacity:1"
       d="m 10.089827,245.31687 c 0.202489,-10.06323 -0.02245,-17.82623 4.643293,-25.24363 7.42604,-11.48202 21.509287,-14.38997 33.731992,-6.96507 l 1.513104,0.91917 c 23.200902,-7.67144 31.47236,-2.846 41.972234,0.95373 17.22683,-9.99298 40.91982,-7.00525 47.51113,4.68028 -4.10595,4.38162 -7.42975,-0.89661 -10.58755,0.0574 -8.74584,-4.24706 -20.69359,-3.84941 -29.15725,0.77435 7.69925,6.06605 10.39395,24.38094 6.31471,38.30628 -4.99633,17.05602 -20.661526,18.28418 -26.900129,2.09035 -4.710533,-15.49048 -3.630102,-32.20194 6.267933,-41.35296 -8.350615,-4.70739 -19.809303,-4.49733 -29.754533,0.10588 l 0.86954,1.36099 c 13.03773,20.40642 5.259318,53.63807 -11.988832,51.21977 l -3e-6,-4e-5 C 34.324868,270.79318 27.638077,255.00661 30.567812,239.654 c 1.295778,-6.79023 3.845011,-12.65929 8.893248,-17.96413 1.26284,-1.32703 4.655122,-3.72255 4.59844,-3.77174 -4.2208,-3.02362 -7.494763,-3.40807 -11.025996,-2.74661 -4.707474,0.88179 -10.111146,3.02697 -12.791203,8.87688 -2.303214,3.64059 -3.427477,12.62272 -3.332691,21.26847 m 31.711862,19.08418 c 8.179576,-3.88146 8.317436,-26.44677 2.007161,-38.52686 -1.686124,-3.22784 -1.158848,-3.64186 -4.072631,-0.73964 -4.018388,4.00244 -6.841476,9.91332 -8.286932,14.95712 -3.338764,11.65036 3.600519,27.51335 10.352402,24.30938 z m 45.772918,0 c 8.48291,-6.2595 9.31048,-36.99026 -2.24721,-41.46719 -3.633605,2.65594 -6.013202,7.39565 -7.020113,11.16416 -4.176049,15.62944 1.446429,34.01428 9.267323,30.30303 z"
       id="path5333-2"
       inkscape:connector-curvature="0"
       sodipodi:nodetypes="ccccccccscccssssscsccsssssccsc"
       transform="matrix(-0.00343615,0.25694159,-0.29240935,-0.00301936,152.82161,78.448644)" /><path
       style="fill:#646464;fill-opacity:1;stroke:#646464;stroke-width:0.264583;stroke-opacity:1"
       d="m 137.09427,216.17665 c 17.22683,-9.99298 40.9198,-7.00525 47.51112,4.68028 -4.10595,4.38162 -7.42975,-0.89661 -10.58755,0.0574 -8.74584,-4.24706 -20.69358,-3.84941 -29.15725,0.77435 7.69925,6.06605 10.39396,24.38094 6.31472,38.30628 -4.99633,17.05602 -20.66153,18.28418 -26.90013,2.09035 -4.71053,-15.49048 -3.6301,-32.20194 6.26793,-41.35296 -1.66908,-1.0136 -10.33548,-5.39797 6.55116,-4.5557 z m 2.44393,49.41998 c 8.48291,-6.2595 9.31049,-36.99026 -2.2472,-41.46719 -3.63361,2.65594 -6.01321,7.39565 -7.02012,11.16416 -4.17605,15.62944 1.44643,34.01428 9.26732,30.30303 z"
       id="path5333-2-7"
       inkscape:connector-curvature="0"
       sodipodi:nodetypes="ccccscccccsc"
       transform="matrix(-0.00343615,0.25694159,-0.29240935,-0.00301936,152.82161,78.448644)" /><path
       style="fill:#646464;fill-opacity:1;stroke:#646464;stroke-width:0.264583;stroke-opacity:1"
       d="m 180.56899,216.35863 c 17.22684,-9.99298 40.91981,-7.00525 47.51113,4.68028 -4.10595,4.38162 -7.42975,-0.89661 -10.58755,0.0574 -8.74584,-4.24706 -20.69358,-3.84941 -29.15725,0.77435 7.69925,6.06605 10.39396,24.38094 6.31472,38.30628 -4.99633,17.05602 -20.66153,18.28418 -26.90013,2.09035 -4.71054,-15.49048 -3.6301,-32.20194 6.26793,-41.35296 -1.66908,-1.0136 -10.33548,-5.39797 6.55115,-4.5557 z m 2.44394,49.41998 c 8.48291,-6.2595 9.31049,-36.99026 -2.2472,-41.46719 -3.63361,2.65594 -6.01321,7.39565 -7.02012,11.16416 -4.17605,15.62944 1.44643,34.01428 9.26732,30.30303 z"
       id="path5333-2-7-1"
       inkscape:connector-curvature="0"
       sodipodi:nodetypes="ccccscccccsc"
       transform="matrix(-0.00343615,0.25694159,-0.29240935,-0.00301936,152.82161,78.448644)" /><rect
       style="opacity:1;fill:#646464;fill-opacity:1;stroke:#646464;stroke-width:0.0742943;stroke-miterlimit:4;stroke-dasharray:0.148589, 0.0742943;stroke-dashoffset:0;stroke-opacity:1"
       id="rect5459"
       width="1.7506928"
       height="14.899557"
       x="79.50177"
       y="-82.586609"
       transform="matrix(-0.0141165,0.99990036,-0.99995217,-0.00978071,0,0)" /><path
       style="fill:#646464;fill-opacity:1;stroke:#646464;stroke-width:0.264583;stroke-opacity:1"
       d="m 263.20106,246.88342 c -0.15859,-8.75455 0.0225,-17.82623 -4.64329,-25.24363 -7.42604,-11.48202 -21.50929,-14.38997 -33.73199,-6.96507 l -1.51311,0.91917 c -23.2009,-7.67144 -31.47236,-2.846 -41.97223,0.95373 -0.57471,7.7638 3.26495,4.30931 6.55116,4.5557 8.35061,-4.70739 19.8093,-4.49733 29.75453,0.10588 l -0.86954,1.36099 c -13.03773,20.40642 -5.25932,53.63807 11.98883,51.21977 v -4e-5 c 10.2006,-1.43019 16.88739,-17.21676 13.95766,-32.56937 -1.29578,-6.79023 -3.84501,-12.65929 -8.89325,-17.96413 -1.26284,-1.32703 -4.65512,-3.72255 -4.59844,-3.77174 4.2208,-3.02362 7.49476,-3.40807 11.026,-2.74661 4.70747,0.88179 10.11114,3.02697 12.7912,8.87688 2.30321,3.64059 3.42725,12.62272 3.33246,21.26847 m -31.71163,19.08418 c -8.17958,-3.88146 -8.31744,-26.44677 -2.00716,-38.52686 1.68612,-3.22784 1.15884,-3.64186 4.07263,-0.73964 4.01839,4.00244 6.84147,9.91332 8.28693,14.95712 3.33876,11.65036 -3.60052,27.51335 -10.3524,24.30938 z"
       id="path5333-2-6"
       inkscape:connector-curvature="0"
       sodipodi:nodetypes="cccccccssssscsccsssss"
       transform="matrix(-0.00343615,0.25694159,-0.29240935,-0.00301936,152.82161,78.448644)" /><rect
       style="opacity:1;fill:#646464;fill-opacity:1;stroke:#646464;stroke-width:0.0731789;stroke-miterlimit:4;stroke-dasharray:0.146359, 0.0731789;stroke-dashoffset:0;stroke-opacity:1"
       id="rect5459-7"
       width="1.7512565"
       height="14.45099"
       x="-144.54485"
       y="-82.038017"
       transform="matrix(0.01416649,-0.99989965,-0.9999525,-0.00974619,0,0)"
       ry="0" /><rect
       style="fill:#646464;fill-opacity:1;stroke:#646464;stroke-width:0;stroke-linecap:butt;stroke-linejoin:round;stroke-dasharray:none;stroke-opacity:1"
       id="rect23"
       width="11.937488"
       height="1.7522863"
       x="55"
       y="80.154915" /><rect
       style="fill:#646464;fill-opacity:1;stroke:#646464;stroke-width:0;stroke-linecap:butt;stroke-linejoin:round;stroke-dasharray:none;stroke-opacity:1"
       id="rect23-9"
       width="24.999228"
       height="1.7522866"
       x="120.02453"
       y="-55.859093"
       transform="matrix(1.1762829e-4,0.99999999,-0.9999999,4.3920466e-4,0,0)" /><rect
       style="fill:#646464;fill-opacity:1;stroke:#646464;stroke-width:0;stroke-linecap:butt;stroke-linejoin:round;stroke-dasharray:none;stroke-opacity:1"
       id="rect23-9-8"
       width="24.999228"
       height="1.7522866"
       x="80.17907"
       y="-55.866718"
       transform="matrix(1.1762829e-4,0.99999999,-0.9999999,4.3920466e-4,0,0)" /><rect
       style="fill:#646464;fill-opacity:1;stroke:#646464;stroke-width:0;stroke-linecap:butt;stroke-linejoin:round;stroke-dasharray:none;stroke-opacity:1"
       id="rect23-3"
       width="11.970608"
       height="1.7522863"
       x="54.123825"
       y="143.43732" /><path
       d="m 54.999999,103.39243 c -4.808766,0 -8.721013,3.88975 -8.721013,8.67088 0,4.78111 3.912247,8.67087 8.721013,8.67087 4.808768,0 8.721015,-3.88976 8.721015,-8.67087 0,-4.78113 -3.912247,-8.67088 -8.721015,-8.67088 z m 0,15.60757 c -3.847072,0 -6.976809,-3.1118 -6.976809,-6.93669 0,-3.8249 3.129737,-6.9367 6.976809,-6.9367 3.847074,0 6.976811,3.1118 6.976811,6.9367 0,3.82489 -3.129797,6.93669 -6.976811,6.93669 z"
       id="path1"
       style="fill:#646464;fill-opacity:1;stroke-width:0.0579726" /></g><text
     xml:space="preserve"
     style="font-size:3.175px;text-align:start;writing-mode:lr-tb;direction:ltr;text-anchor:start;fill:#000000;fill-opacity:1;stroke:#000000;stroke-width:0.2;stroke-linecap:round;stroke-linejoin:round;stroke-dasharray:none;stroke-opacity:1"
     x="50.030834"
     y="91.981659"
     id="temperatuurWarmteweerstand"><tspan
       sodipodi:role="line"
       id="tspan28"
       style="stroke-width:0.2"
       x="50.030834"
       y="91.981659">200°C</tspan></text><rect
     style="fill:#000000;stroke-width:0.258442"
     id="rect10-2"
     width="1"
     height="11.926468"
     x="101.4996"
     y="136.33022" /><rect
     style="fill:#000000;stroke-width:0.20692"
     id="rect9-2"
     width="1"
     height="11.926465"
     x="108.99959"
     y="136.33022" /><g
     id="regelbareweerstand"
     transform="translate(0.53374563,-2.580847)"
     inkscape:label="regelbareweerstand"><path
       style="fill:#bdff30;stroke:#000000;stroke-width:0.7;stroke-linecap:round;stroke-linejoin:round;stroke-opacity:1"
       d="m 70.896889,119.45409 c 22.49999,-10 22.49999,-10 22.49999,-10"
       id="path5-8-8"
       transform="translate(1.7112467e-7,-21.669783)" /><path
       sodipodi:type="star"
       style="fill:#000000;fill-opacity:1;stroke:#000000;stroke-width:0.7;stroke-linecap:round;stroke-linejoin:round;stroke-opacity:1"
       id="path7-5-8"
       inkscape:flatsided="true"
       sodipodi:sides="3"
       sodipodi:cx="116"
       sodipodi:cy="57.499996"
       sodipodi:r1="2.9154761"
       sodipodi:r2="1.457738"
       sodipodi:arg1="-0.54041948"
       sodipodi:arg2="0.50677807"
       inkscape:rounded="0"
       inkscape:randomized="0"
       d="m 118.5,55.999996 -2.45096,4.415064 -2.59808,-4.330127 z"
       inkscape:transform-center-x="-0.057497776"
       inkscape:transform-center-y="0.59746542"
       transform="matrix(0.77797914,0.04673625,-0.05253541,0.87451282,6.2870813,32.02686)" /></g></svg>
